<svg xmlns="http://www.w3.org/2000/svg" viewBox="0 0 282.79 287.93"><defs><style>.cls-1{fill:none;}.cls-1,.cls-2,.cls-3{stroke:#4b636e;stroke-miterlimit:10;stroke-width:2px;}.cls-2{fill:#a7c0cd;}.cls-3{fill:#90a4ae;}.cls-4{fill:#573511;}.cls-5{fill:#643f1c;}.cls-6{fill:#689f38;}.cls-7{fill:#99d066;}.cls-8{fill:#387002;}</style></defs><title>treemotif</title><g id="Layer_1" data-name="Layer 1"><line class="cls-1" x1="66.5" y1="129.99" x2="72.96" y2="141.66"/><line class="cls-1" x1="107.31" y1="160.99" x2="76.62" y2="112.98"/><line class="cls-1" x1="94.14" y1="52.85" x2="110.44" y2="56.37"/><line class="cls-1" x1="128.18" y1="105.38" x2="139.37" y2="113.62"/><line class="cls-1" x1="50.14" y1="94.92" x2="60.07" y2="105.38"/><line class="cls-1" x1="62.03" y1="32.66" x2="80.06" y2="56.37"/><line class="cls-1" x1="80.06" y1="56.37" x2="80.06" y2="18.08"/><line class="cls-1" x1="104.17" y1="13.02" x2="110.44" y2="56.37"/><line class="cls-1" x1="127.58" y1="19.5" x2="110.44" y2="56.37"/><line class="cls-1" x1="80.06" y1="56.37" x2="96.07" y2="77.32"/><line class="cls-1" x1="96.07" y1="77.32" x2="110.44" y2="56.37"/><line class="cls-1" x1="30.05" y1="144.18" x2="43" y2="125.73"/><line class="cls-1" x1="54.94" y1="145.71" x2="72.96" y2="141.66"/><polyline class="cls-1" points="115.5 287.93 115.5 184.6 84.11 159.07 72.96 141.66 43 125.73 11.14 129.78"/><polyline class="cls-1" points="60.07 105.38 96.07 160.94 120.5 180.14 120.5 287.93"/><polyline class="cls-1" points="90.65 134.95 107.31 160.99 125.56 175.28 125.56 287.93"/><line class="cls-1" x1="55.95" y1="56.37" x2="60.07" y2="105.38"/><line class="cls-1" x1="31.06" y1="66.49" x2="57.71" y2="77.32"/><line class="cls-1" x1="139.37" y1="7.08" x2="139.37" y2="113.62"/><line class="cls-1" x1="128.18" y1="44.52" x2="139.37" y2="54.5"/><line class="cls-1" x1="23.38" y1="117.58" x2="50.14" y2="115.55"/><line class="cls-1" x1="50.14" y1="115.55" x2="66.5" y2="129.99"/><line class="cls-1" x1="28.08" y1="87.68" x2="50.14" y2="94.92"/><line class="cls-1" x1="50.14" y1="94.92" x2="39.54" y2="78.85"/><line class="cls-1" x1="69.12" y1="66.49" x2="84.11" y2="84.53"/><line class="cls-1" x1="128.18" y1="68.58" x2="128.18" y2="105.38"/><line class="cls-1" x1="94.14" y1="52.85" x2="94.14" y2="25.34"/><polyline class="cls-1" points="96.07 115.56 130.62 172.04 130.62 287.93"/><line class="cls-1" x1="96.07" y1="115.55" x2="96.07" y2="77.32"/><polyline class="cls-1" points="115.4 82.9 115.4 136.99 135.68 172.04 135.68 287.93"/><polyline class="cls-1" points="139.37 113.62 123.64 141.66 141.39 172.04 141.39 287.93"/><line class="cls-1" x1="76.62" y1="109.94" x2="84.11" y2="84.53"/><line class="cls-1" x1="5.05" y1="105.38" x2="60.07" y2="105.38"/><line class="cls-1" x1="11.39" y1="81.7" x2="34.1" y2="105.38"/><circle class="cls-2" cx="55.95" cy="56.37" r="4.05"/><circle class="cls-2" cx="31.06" cy="66.49" r="4.05"/><circle class="cls-2" cx="11.39" cy="81.7" r="4.05"/><circle class="cls-2" cx="5.05" cy="105.38" r="4.05"/><circle class="cls-2" cx="34.1" cy="105.38" r="4.05"/><circle class="cls-2" cx="11.14" cy="129.78" r="4.05"/><circle class="cls-2" cx="30.05" cy="144.18" r="4.05"/><circle class="cls-2" cx="54.94" cy="145.71" r="4.05"/><circle class="cls-2" cx="90.65" cy="134.95" r="4.05"/><circle class="cls-2" cx="115.4" cy="82.9" r="4.05"/><circle class="cls-2" cx="139.37" cy="113.62" r="4.05"/><circle class="cls-2" cx="128.18" cy="44.52" r="4.05"/><circle class="cls-2" cx="80.06" cy="56.37" r="4.05"/><circle class="cls-2" cx="110.44" cy="56.37" r="4.05"/><circle class="cls-2" cx="96.07" cy="115.55" r="4.05"/><circle class="cls-2" cx="62.03" cy="32.66" r="4.05"/><circle class="cls-2" cx="80.06" cy="18.08" r="4.05"/><circle class="cls-2" cx="104.17" cy="13.02" r="4.05"/><circle class="cls-2" cx="127.58" cy="19.5" r="4.05"/><circle class="cls-2" cx="139.37" cy="7.08" r="4.05"/><path class="cls-1" d="M57,105.42" transform="translate(-2.1 -0.04)"/><path class="cls-1" d="M33.16,105.42" transform="translate(-2.1 -0.04)"/><circle class="cls-3" cx="69.12" cy="66.49" r="3.04"/><circle class="cls-3" cx="84.11" cy="84.53" r="3.04"/><circle class="cls-3" cx="76.62" cy="110.95" r="3.04"/><circle class="cls-3" cx="128.18" cy="68.58" r="3.04"/><circle class="cls-3" cx="128.18" cy="105.38" r="3.04"/><circle class="cls-3" cx="94.14" cy="52.85" r="3.04"/><circle class="cls-3" cx="94.14" cy="25.34" r="3.04"/><circle class="cls-3" cx="66.5" cy="129.99" r="3.04"/><circle class="cls-3" cx="50.14" cy="115.55" r="3.04"/><circle class="cls-3" cx="23.38" cy="117.58" r="3.04"/><circle class="cls-3" cx="39.54" cy="78.85" r="3.04"/><circle class="cls-3" cx="28.08" cy="87.68" r="3.04"/><circle class="cls-3" cx="50.14" cy="94.92" r="3.04"/><path class="cls-4" d="M195.48,288a207.18,207.18,0,0,1-13.4-46c-2.56-14.92-5-32.07.43-46.58,9.43-25,35.86-46,61.86-49.16,4.34-.52,8.07-3.27,8.07-8.07,0-4-3.74-8.59-8.07-8.07-39.23,11.13-71,36.05-78.24,40.22a258.18,258.18,0,0,0,7.78-24.8c2.61-10.08-13-14.34-15.56-4.29a246.2,246.2,0,0,1-10.11,30.63L148.06,288" transform="translate(-2.1 -0.04)"/><path class="cls-5" d="M181.52,288l-9.33-28.14c-2.14-6.47-4.64-13.09-5.07-19.95-.78-12.27,1.12-25.42,4.4-37.22,2.8-10.05,12.18-28.63,12.37-28.92,4-6.24,9.58-11.49,15.21-16.42l.11-.09c6.21-4.4,12.66-8.49,19.2-12.32a6,6,0,0,0,3-6.59c-28.24,12.19-49.56,28.65-55.31,32q-3.49,3.72-7.36,8l0,0a1.22,1.22,0,0,1-2.15-.75c0-5.57-.28-11.26,2.19-16.28a88.86,88.86,0,0,0,5.94-15.52c.75-2.75,1.23-10.9-4.38-8.08-3.44,1.73-4.59,12.82-5.69,16.28q-2.86,9-6.42,17.83L148.06,288" transform="translate(-2.1 -0.04)"/><path class="cls-6" d="M148,145.56a32.22,32.22,0,0,0,4.22-3.24c.24-.22.45-.44.67-.66,8.73,5.13,19.81,6.42,29.64,5.21a59.24,59.24,0,0,0,16.6-4.48A38.26,38.26,0,0,0,216.3,152.8a54.33,54.33,0,0,0,19.24,1.69,59.61,59.61,0,0,0,15.62-.78,32.25,32.25,0,0,0,16.62-5.12,31.42,31.42,0,0,0,13.26-14c3.54-7.59,5.12-16.07,2.67-24.28s-8.14-13.82-14.78-18.72a57.65,57.65,0,0,0-18.87-9A30,30,0,0,0,249.73,60c-3.21-7.61-9.58-12.47-16-17.27-6.12-4.59-13-6.81-20.43-7.68C207.68,17.38,191.16,4.22,172.68.85A42.89,42.89,0,0,0,148,3.16" transform="translate(-2.1 -0.04)"/><path class="cls-7" d="M148,16.88c6.4-4.66,17.34-2.32,24.08.17a41.75,41.75,0,0,1,19.71,15.3c3.31,4.77,11.18.23,7.84-4.58a52,52,0,0,0-26.57-20C165.24,5.22,155.93,4.16,148,7" transform="translate(-2.1 -0.04)"/><path class="cls-7" d="M243.48,65C237.75,48.67,222,39.63,205,42.7c-5.74,1-3.31,9.79,2.42,8.75a24.27,24.27,0,0,1,27.32,15.94C236.65,72.86,245.43,70.5,243.48,65Z" transform="translate(-2.1 -0.04)"/><path class="cls-7" d="M278.58,115.43c-5-19.61-28.64-30.05-47.32-27.31-5.76.85-3.31,9.6,2.41,8.76,13.87-2,32.49,6.54,36.15,21C271.26,123.5,280,121.1,278.58,115.43Z" transform="translate(-2.1 -0.04)"/><path class="cls-7" d="M154.56,55.62c-5.32,2.4-.71,10.22,4.58,7.84,7.55-3.41,17.07-.61,24.31,2.36,7.72,3.17,14.83,9,14.38,18.09-.29,5.84,8.79,5.82,9.08,0C208.1,60,173.43,47.1,154.56,55.62Z" transform="translate(-2.1 -0.04)"/><path class="cls-8" d="M259.06,137.61a54.76,54.76,0,0,1-49.13-3.1c-5.06-3-9.63,4.88-4.59,7.83a63.33,63.33,0,0,0,56.13,4C266.78,144.14,264.45,135.35,259.06,137.61Z" transform="translate(-2.1 -0.04)"/><path class="cls-8" d="M186.8,131.45a47.87,47.87,0,0,1-14.69,1.49c-4-.23-9.59-.54-12.43-3.66-3.93-4.34-10.33,2.09-6.42,6.42,8.06,8.88,25.59,7.13,36,4.5C194.87,138.77,192.47,130,186.8,131.45Z" transform="translate(-2.1 -0.04)"/></g></svg>